<svg role="img" viewBox="0 0 24 24" xmlns="http://www.w3.org/2000/svg"><title>Python</title><path d="M14.25.18l.9.2.73.26.59.3.45.32.34.34.25.34.16.33.1.3.04.26.02.2-.01.13V8.5l-.05.63-.13.55-.21.46-.26.38-.3.31-.33.25-.35.19-.35.14-.33.1-.3.07-.26.04-.21.02H8.77l-.69.05-.59.14-.5.22-.41.27-.33.32-.27.35-.2.36-.15.37-.1.35-.07.32-.04.27-.02.21v3.06H3.17l-.21-.03-.28-.07-.32-.12-.35-.18-.36-.26-.36-.36-.35-.46-.32-.59-.28-.73-.21-.88-.14-1.05-.05-1.23.01-1.38.07-1.46.15-1.45.24-1.3.34-1.03.46-.66.58-.33.72-.11 1.86-.01V1.3l.05-.2.13-.19.22-.16.32-.13.42-.1.52-.07.63-.04.75-.02H14.25zM12 3h.01v.01H12V3zm3.75 6.5h-.01v-.01h.01v.01zm3.85 4.3v4.45l-.05.63-.12.54-.21.46-.26.39-.31.31-.33.24-.35.19-.34.14-.33.1-.3.07-.26.04-.21.01h-5.46l-.69-.05-.59-.14-.5-.22-.41-.26-.33-.33-.27-.34-.2-.36-.15-.38-.1-.35-.07-.31-.04-.27-.02-.21v-3.07h5.61l.21.03.28.08.32.12.35.17.36.26.36.36.35.46.32.59.28.73.21.88.14 1.05.05 1.23-.01 1.38-.07 1.45-.15 1.46-.24 1.3-.34 1.02-.46.67-.58.32-.72.1-1.86.01v4.7l-.05.2-.13.19-.22.15-.32.13-.42.11-.52.06-.63.04-.75.02H9.72l-.89-.2-.73-.25-.59-.3-.45-.33-.34-.33-.25-.34-.16-.32-.1-.3-.04-.26-.02-.2.01-.13V15.5l.05-.63.13-.54.21-.46.26-.39.3-.32.33-.24.35-.19.35-.14.33-.1.3-.07.26-.04.21-.02H15.2l.69-.05.59-.14.5-.22.41-.26.33-.33.27-.34.2-.36.15-.38.1-.35.07-.31.04-.27.02-.21zM12 21h-.01v-.01H12V21z" fill="white"/></svg>
