<svg role="img" viewBox="0 0 24 24" xmlns="http://www.w3.org/2000/svg"><title>Rust</title><path d="M23.834 11.19c-.115-1.157-.605-2.22-1.381-3.044l-.06-.064 1.159-2.308c.078-.157.065-.346-.036-.492a.49.49 0 0 0-.46-.226l-2.484.22-.057-.042a9.78 9.78 0 0 0-2.34-1.282l-.08-.03L17.202 1.57a.49.49 0 0 0-.39-.286.488.488 0 0 0-.472.164l-1.636 1.838-.088-.016a9.99 9.99 0 0 0-2.384 0l-.088.016L10.51.198a.488.488 0 0 0-.472-.164.49.49 0 0 0-.39.286l-.894 2.313-.08.03a9.78 9.78 0 0 0-2.34 1.282l-.057.042-2.484-.22a.49.49 0 0 0-.46.226.489.489 0 0 0-.036.492L4.542 6.776l-.06.064c-.777.825-1.266 1.888-1.381 3.044l-.014.135-2.492.658a.49.49 0 0 0-.342.348.49.49 0 0 0 .153.5l1.966 1.706c.01.037.198.636.198.636s-.188.599-.198.636l-1.966 1.706a.49.49 0 0 0-.153.5.49.49 0 0 0 .342.348l2.492.658.014.135c.115 1.157.605 2.22 1.381 3.044l.06.064-1.159 2.308a.489.489 0 0 0 .036.492.49.49 0 0 0 .46.226l2.484-.22.057.042a9.78 9.78 0 0 0 2.34 1.282l.08.03.894 2.313a.49.49 0 0 0 .39.286c.046.009.092.013.138.013.123 0 .241-.054.334-.15l1.636-1.838.088.016a9.99 9.99 0 0 0 2.384 0l.088-.016 1.636 1.838a.488.488 0 0 0 .61.137.49.49 0 0 0 .198-.423l-.894-2.313.08-.03a9.78 9.78 0 0 0 2.34-1.282l.057-.042 2.484.22a.49.49 0 0 0 .46-.226.489.489 0 0 0 .036-.492l-1.159-2.308.06-.064c.777-.825 1.266-1.888 1.381-3.044l.014-.135 2.492-.658a.49.49 0 0 0 .342-.348.49.49 0 0 0-.153-.5l-1.966-1.706c-.01-.037-.198-.636-.198-.636s.188-.599.198-.636l1.966-1.706a.49.49 0 0 0 .153-.5.49.49 0 0 0-.342-.348zm-13.882 1.458c0-.776.626-1.408 1.399-1.408 1.258 0 2.646.682 3.328 1.66l-1.164.838c-.352-.486-.98-.828-1.503-.828-.403 0-.734.333-.734.743s.332.742.734.742h2.09c.304 0 .58.118.788.318.21.2.327.48.327.794 0 1.053-.847 1.905-1.895 1.905-.724 0-1.396-.345-1.815-.929l1.134-.87c.238.307.568.468.913.468.47 0 .855-.386.855-.86 0-.472-.387-.857-.855-.857h-2.09c-1.048 0-1.895-.852-1.895-1.905z" fill="white"/></svg>
